<svg xmlns="http://www.w3.org/2000/svg" viewBox="0 0 612 612"><defs><style>.cls-1{fill:lime;}.cls-2{fill:aqua;}.cls-3{fill:blue;}.cls-4{fill:#c1272d;}</style></defs><g id="Layer_2" data-name="Layer 2"><g id="Layer_2-2" data-name="Layer 2"><path class="cls-1" d="M611.79,295.18c-.06-1.81-.13-3.62-.22-5.42-.06-1.07-.14-2.13-.2-3.19-.1-1.62-.2-3.25-.33-4.86-.09-1.13-.2-2.24-.3-3.36-.14-1.55-.27-3.09-.43-4.63-.12-1.15-.26-2.3-.4-3.44q-.25-2.25-.54-4.5c-.15-1.15-.32-2.31-.49-3.46-.21-1.47-.42-2.95-.65-4.41-.19-1.16-.38-2.31-.58-3.46-.24-1.46-.5-2.91-.76-4.35-.21-1.15-.44-2.3-.66-3.44-.28-1.44-.58-2.88-.88-4.31-.24-1.14-.49-2.27-.74-3.41-.32-1.43-.65-2.86-1-4.28-.27-1.12-.54-2.23-.82-3.35q-.54-2.15-1.11-4.29c-.29-1.09-.58-2.17-.88-3.26-.41-1.44-.82-2.88-1.25-4.31-.31-1.06-.61-2.11-.94-3.16-.44-1.46-.91-2.91-1.38-4.36-.32-1-.64-2-1-3-.5-1.49-1-3-1.54-4.45-.34-.95-.66-1.91-1-2.86-.56-1.56-1.16-3.11-1.75-4.66-.32-.85-.64-1.71-1-2.56q-1-2.6-2.09-5.16c-.27-.66-.53-1.32-.81-2q-1.49-3.54-3.06-7v0a1.42,1.42,0,0,1-.08-.18c-.55-1.2-1.11-2.39-1.67-3.58l-.15-.31c-.68-1.44-1.35-2.88-2-4.3l-.42-.83q-3.21-6.49-6.68-12.81c-.27-.47-.54-.95-.8-1.43q-1.2-2.15-2.43-4.27-4.68-8-9.83-15.78l-.31-.47c-1-1.47-2-2.92-3-4.37l-.82-1.18q-1.45-2.07-2.94-4.11c-.31-.44-.62-.87-.94-1.3-1-1.36-2-2.71-3-4.05-.28-.38-.57-.75-.86-1.12-1.08-1.41-2.16-2.81-3.26-4.2l-.27-.32q-5.76-7.25-11.94-14.12l-.1-.12q-1.8-2-3.62-3.93l-1-1q-1.71-1.83-3.47-3.63l-1.15-1.17q-1.74-1.77-3.52-3.53L519.66,87c-1.23-1.21-2.47-2.4-3.72-3.59l-.63-.58q-8.59-8.06-17.79-15.45l-1.13-.91c-1.28-1-2.58-2-3.88-3l-1.42-1.09c-1.28-1-2.57-1.94-3.87-2.9l-1.44-1q-2-1.46-4-2.88l-1.11-.77q-9.47-6.6-19.43-12.47l-1.45-.86q-2-1.18-4.1-2.34l-1.82-1c-1.34-.74-2.69-1.48-4-2.2l-1.9-1q-2.06-1.08-4.11-2.12L442,31.85c-1.45-.72-2.9-1.44-4.36-2.14l-.73-.34q-7.57-3.59-15.37-6.77A305.11,305.11,0,0,0,306,0C210.56,0,113,54.15,54.43,137.62h0A308.2,308.2,0,0,0,22.82,194.5l-.09.22q-1.36,3.21-2.65,6.47l-.15.38c-.83,2.13-1.65,4.27-2.44,6.43l-.18.49c-.77,2.13-1.53,4.27-2.25,6.42-.07.18-.13.37-.19.55-.72,2.15-1.42,4.3-2.09,6.47,0,.18-.11.36-.16.54q-1,3.27-1.95,6.58l-.12.43q-.95,3.38-1.81,6.77l-.06.24Q7.8,240,7,243.52H7c30.35-18.65,74.8-37.93,139.87-33.88,89.2,5.55,157.84,49,168.41,55.63,51.31,32.22,48.62,49,96.23,70.47a251,251,0,0,0,70.55,20,247,247,0,0,0,36.45,2.08,202.79,202.79,0,0,0,23.1-1.66l2.52-.33,2.76-.37c5.26-.72,11.36-1.62,18-2.85a228.32,228.32,0,0,0,34.11-8.9v-.37q5.65-2,11.27-4.49.84-7.95,1.28-16l0-.36c.13-2.42.22-4.85.29-7.28,0-.33,0-.66,0-1q.11-4.09.11-8.2c0-2.73,0-5.44-.11-8.15C611.87,297,611.82,296.07,611.79,295.18Z"/><path class="cls-2" d="M264.18,609.14A305.51,305.51,0,0,1,140,363q0-9.64.65-19.13.48-7.22,1.34-14.32s0,0,0,0c0-.18,0-.35,0-.53A82,82,0,0,0,2.19,270.86,283,283,0,0,0,0,306C0,460.81,115,588.75,264.18,609.14Z"/><path class="cls-3" d="M295,611.81q5.46.2,11,.19c147.79,0,271.11-104.77,299.73-244.09q-2.25.88-4.52,1.7c0,.12,0,.24,0,.36a232.16,232.16,0,0,1-34.87,9.1c-6.78,1.26-13,2.18-18.39,2.92l-2.82.38-2.58.33a206.1,206.1,0,0,1-23.62,1.7,253.27,253.27,0,0,1-37.26-2.13,256.82,256.82,0,0,1-72.13-20.41c-48.67-21.92-45.92-39.11-98.37-72.05C300.36,283,230.09,239.92,139,232.94A304.89,304.89,0,0,0,79.65,234a96.42,96.42,0,0,1,77.08,93.1c.09,7.18-.42,14.12-.92,20.83a192.51,192.51,0,0,0-.8,19.9c.37,11.95,1,21.67,2.12,30.57A291.35,291.35,0,0,0,295,611.78"/><path class="cls-4" d="M556.93,450.12c-.51-.45-1-.93-1.51-1.39a147.84,147.84,0,0,0,15.92.79c4.89,0-1.38-9.56-3.42-10.39a90.56,90.56,0,0,1-31.6-20.8l.81-.22a49.12,49.12,0,0,0,9.14-1.31c4.63-1.11-1.22-8.38-3.11-9.44-6.74-3.78-13.21-7.81-19.47-12,2.36-.81,5.32-3.06,3.43-4.33l-32.78-22c-2.63-1.76-5.55-3.53-8.47-5.38-1.62-1.65-3.25-3.26-4.84-4.94-.82-.86-1.61-1.76-2.44-2.64,5.74,2,11.49,4,17.21,6,1.64.58,7.33-2.49,5-4.23-17.81-13.59-34.58-28.19-44.75-47.26,2.95,1.08,6,2.12,9.2,3.05-4.83-5.26-9.43-10.74-13.86-16.37q-.82-1-1.65-2.1l-.56-.63a44.33,44.33,0,0,0,7.46.33C481.74,293,504.57,275,504.57,275c-17.14,3.81-29.18-.8-29.18-.8S463,265,451.26,259.56c-6.06-2.8-12.58-3.19-18-7.25-4.49-3.35-8.28-7.59-12.1-11.64-15.44-16.35-31.43-33.06-51.38-43.92-9.06-4.92-18.52-7.93-28.52-10.3-9.23-2.19-18.13-4.58-25.23-10.84a143.44,143.44,0,0,0-21.81-24.48c-7.24-6.58-16.81-16.47-26.28-19.72-4.89-1.68-9.12.07-12.19,3.43a1.92,1.92,0,0,0-.34.3c-8.25.62-16.37,8.77-11.87,17.2-2.29,6-4.91,12-7.08,18-.28.76-.47,2.34.56,2.66-.14.31,5.33,7.62,6.45,7.33a.76.76,0,0,0,.6.53,4.89,4.89,0,0,1,1.69.6c.53.31.92.8,1.44,1.14.51,1.2,1,2.41,1.41,3.56a131.5,131.5,0,0,0,8,18,121.3,121.3,0,0,0,7,11.15c-13-7.4-27.3-12.71-41.34-17.24-1.58-.51-3,2.26-3.27,3.36-6.89,27.84,23.7,45.55,33.48,68.24,11.57,26.82,8.12,57.41,4.61,85.55-.31,2.42,2,1.53,3.12.51l3.41-3.18q-.63,16.2-1.33,32.39a148.49,148.49,0,0,0-5.86,20.62c-4.82,24.39,1.95,49,17.86,68A2.21,2.21,0,0,0,277,474c-1.13,30.69,3.78,61.18,17.91,88.92,1.68,3.3,6.89-1.48,7.45-3.62l.8-3.09c-.26,16.68,3.44,33.65,9.25,48.88,1.1,2.87,5.44-1.74,5.66-3.32.68-1.16,1.35-2.32,2-3.49q3.21,6.42,6,13c104.56-6.79,194.81-66.08,244.63-151.8C566,456.58,561.34,453.5,556.93,450.12Z"/><path class="cls-4" d="M556.93,450.12c-.51-.45-1-.93-1.51-1.39a147.84,147.84,0,0,0,15.92.79c4.89,0-1.38-9.56-3.42-10.39a90.56,90.56,0,0,1-31.6-20.8l.81-.22a49.12,49.12,0,0,0,9.14-1.31c4.63-1.11-1.22-8.38-3.11-9.44-6.74-3.78-13.21-7.81-19.47-12,2.36-.81,5.32-3.06,3.43-4.33l-32.78-22c-2.63-1.76-5.55-3.53-8.47-5.38-1.62-1.65-3.25-3.26-4.84-4.94-.82-.86-1.61-1.76-2.44-2.64,5.74,2,11.49,4,17.21,6,1.64.58,7.33-2.49,5-4.23-17.81-13.59-34.58-28.19-44.75-47.26,2.95,1.08,6,2.12,9.2,3.05-4.83-5.26-9.43-10.74-13.86-16.37q-.82-1-1.65-2.1l-.56-.63a44.33,44.33,0,0,0,7.46.33C481.74,293,504.57,275,504.57,275c-17.14,3.81-29.18-.8-29.18-.8S463,265,451.26,259.56c-6.06-2.8-12.58-3.19-18-7.25-4.49-3.35-8.28-7.59-12.1-11.64-15.44-16.35-31.43-33.06-51.38-43.92-9.06-4.92-18.52-7.93-28.52-10.3-9.23-2.19-18.13-4.58-25.23-10.84a143.44,143.44,0,0,0-21.81-24.48c-7.24-6.58-16.81-16.47-26.28-19.72-4.89-1.68-9.12.07-12.19,3.43a1.92,1.92,0,0,0-.34.3c-8.25.62-16.37,8.77-11.87,17.2-2.29,6-4.91,12-7.08,18-.28.76-.47,2.34.56,2.66-.14.31,5.33,7.62,6.45,7.33a.76.76,0,0,0,.6.53,4.89,4.89,0,0,1,1.69.6c.53.31.92.8,1.44,1.14.51,1.2,1,2.41,1.41,3.56a131.5,131.5,0,0,0,8,18,121.3,121.3,0,0,0,7,11.15c-13-7.4-27.3-12.71-41.34-17.24-1.58-.51-3,2.26-3.27,3.36-6.89,27.84,23.7,45.55,33.48,68.24,11.57,26.82,8.12,57.41,4.61,85.55-.31,2.42,2,1.53,3.12.51l3.41-3.18q-.63,16.2-1.33,32.39a148.49,148.49,0,0,0-5.86,20.62c-4.82,24.39,1.95,49,17.86,68A2.21,2.21,0,0,0,277,474c-1.13,30.69,3.78,61.18,17.91,88.92,1.68,3.3,6.89-1.48,7.45-3.62l.8-3.09c-.26,16.68,3.44,33.65,9.25,48.88,1.1,2.87,5.44-1.74,5.66-3.32.68-1.16,1.35-2.32,2-3.49q3.21,6.42,6,13c104.56-6.79,194.81-66.08,244.63-151.8C566,456.58,561.34,453.5,556.93,450.12Z"/></g></g></svg>